<svg version="1.2" xmlns="http://www.w3.org/2000/svg" viewBox="0 0 27 25" width="27" height="25"><defs><clipPath clipPathUnits="userSpaceOnUse" id="cp1"><path d="m-261-2355h1920v2585h-1920z"/></clipPath></defs><style>.a{fill:#7b7b7b}</style><g clip-path="url(#cp1)"><path class="a" d="m26.2 12.6c0-7-5.7-12.6-12.6-12.6-7 0-12.6 5.6-12.6 12.6 0 6.3 4.6 11.5 10.6 12.4v-8.8h-3.2v-3.6h3.2v-2.8c0-3.1 1.9-4.9 4.8-4.9 1.3 0 2.8 0.3 2.8 0.3v3.1h-1.6c-1.6 0-2.1 0.9-2.1 1.9v2.4h3.5l-0.5 3.6h-3v8.8c6.1-0.9 10.7-6.1 10.7-12.4z"/></g></svg>