<svg version="1.2" xmlns="http://www.w3.org/2000/svg" viewBox="0 0 25 25" width="25" height="25"><defs><clipPath clipPathUnits="userSpaceOnUse" id="cp1"><path d="m-299-2355h1920v2585h-1920z"/></clipPath></defs><style>.a{fill:#7b7b7b}</style><g clip-path="url(#cp1)"><path fill-rule="evenodd" class="a" d="m25 1.8v21.4c0 1-0.8 1.8-1.8 1.8h-21.4c-1 0-1.8-0.8-1.8-1.8v-21.4c0-1 0.8-1.8 1.8-1.8h21.4c1 0 1.8 0.8 1.8 1.8zm-17.4 19.6v-11.9h-3.7v11.9zm0.2-15.7c0-1.2-0.9-2.1-2.1-2.1-1.2 0-2.2 0.9-2.2 2.1 0 1.2 1 2.2 2.2 2.2 1.2 0 2.1-1 2.1-2.2zm13.6 9.2c0-3.2-0.7-5.7-4.4-5.7-1.8 0-3 1-3.5 1.9h-0.1v-1.6h-3.5v11.9h3.7v-5.9c0-1.5 0.3-3 2.2-3 1.9 0 1.9 1.7 1.9 3.1v5.8h3.7z"/></g></svg>