<svg xmlns="http://www.w3.org/2000/svg" width="15.003" height="15" viewBox="0 0 15.003 15">
  <path id="instagram" d="M7.428,35.479a3.846,3.846,0,1,0,3.846,3.846A3.84,3.84,0,0,0,7.428,35.479Zm0,6.346a2.5,2.5,0,1,1,2.5-2.5,2.5,2.5,0,0,1-2.5,2.5Zm4.9-6.5a.9.9,0,1,1-.9-.9A.895.895,0,0,1,12.328,35.322Zm2.547.91a4.439,4.439,0,0,0-1.212-3.143,4.468,4.468,0,0,0-3.143-1.212c-1.238-.07-4.95-.07-6.189,0a4.462,4.462,0,0,0-3.143,1.208A4.454,4.454,0,0,0-.022,36.229c-.07,1.238-.07,4.95,0,6.189a4.439,4.439,0,0,0,1.212,3.143,4.474,4.474,0,0,0,3.143,1.212c1.238.07,4.95.07,6.189,0a4.439,4.439,0,0,0,3.143-1.212,4.468,4.468,0,0,0,1.212-3.143C14.946,41.179,14.946,37.471,14.876,36.232Zm-1.6,7.514a2.531,2.531,0,0,1-1.426,1.426,16.531,16.531,0,0,1-4.422.3,16.66,16.66,0,0,1-4.422-.3,2.531,2.531,0,0,1-1.426-1.426,16.531,16.531,0,0,1-.3-4.422,16.66,16.66,0,0,1,.3-4.422,2.531,2.531,0,0,1,1.426-1.426,16.531,16.531,0,0,1,4.422-.3,16.66,16.66,0,0,1,4.422.3A2.531,2.531,0,0,1,13.276,34.9a16.531,16.531,0,0,1,.3,4.422A16.522,16.522,0,0,1,13.276,43.747Z" transform="translate(0.075 -31.825)" fill="#fff"/>
</svg>
