<svg xmlns="http://www.w3.org/2000/svg" width="15" height="15" viewBox="0 0 15 15">
  <path id="whatsapp" d="M12.753,34.18a7.435,7.435,0,0,0-11.7,8.97L0,47l3.941-1.035a7.41,7.41,0,0,0,3.552.9h0a7.386,7.386,0,0,0,5.257-12.69ZM7.5,45.617a6.167,6.167,0,0,1-3.147-.86l-.224-.134-2.337.613.623-2.28-.147-.234a6.19,6.19,0,1,1,11.481-3.285A6.247,6.247,0,0,1,7.5,45.617Zm3.388-4.627c-.184-.094-1.1-.542-1.269-.6s-.295-.094-.419.094-.479.6-.589.73-.218.141-.4.047a5.056,5.056,0,0,1-2.528-2.21c-.191-.328.191-.3.546-1.015a.344.344,0,0,0-.017-.325c-.047-.094-.419-1.008-.573-1.379s-.3-.311-.419-.318S4.985,36,4.862,36a.688.688,0,0,0-.5.231,2.087,2.087,0,0,0-.65,1.55,3.639,3.639,0,0,0,.757,1.922,8.3,8.3,0,0,0,3.174,2.806,3.634,3.634,0,0,0,2.23.465,1.9,1.9,0,0,0,1.252-.884,1.553,1.553,0,0,0,.107-.884C11.193,41.127,11.069,41.08,10.885,40.99Z" transform="translate(0 -32)" fill="#fff"/>
</svg>
